<?xml version="1.0" standalone="no"?>
<!DOCTYPE svg PUBLIC "-//W3C//DTD SVG 20010904//EN"
 "http://www.w3.org/TR/2001/REC-SVG-20010904/DTD/svg10.dtd">
<svg version="1.0" xmlns="http://www.w3.org/2000/svg"
 width="512.000000pt" height="512.000000pt" viewBox="0 0 512.000000 512.000000"
 preserveAspectRatio="xMidYMid meet">

<g transform="translate(0.000000,512.000000) scale(0.100000,-0.100000)"
fill="#000000" stroke="none">
<path d="M2330 5110 c-891 -86 -1667 -619 -2060 -1415 -160 -324 -236 -605
-262 -973 -24 -335 30 -719 147 -1038 51 -141 183 -402 263 -522 253 -380 599
-690 991 -886 556 -280 1189 -347 1792 -192 429 110 811 325 1136 640 463 446
729 1022 775 1673 24 336 -30 722 -147 1039 -53 144 -183 403 -264 524 -105
158 -225 301 -364 437 -385 374 -869 614 -1402 694 -151 23 -462 32 -605 19z
m869 -1035 c93 -24 163 -65 231 -134 200 -203 201 -512 1 -712 -91 -91 -211
-148 -315 -150 -33 0 -23 -4 46 -19 205 -43 352 -181 403 -377 70 -268 -103
-553 -376 -618 -178 -42 -342 6 -475 139 -79 79 -117 149 -140 254 -17 84 -17
120 0 204 23 105 61 175 140 254 81 81 152 120 265 145 l76 17 -247 1 -248 1
0 505 0 505 293 0 c221 0 305 -4 346 -15z m-639 -2298 c0 -152 -5 -300 -11
-333 -17 -94 -72 -197 -142 -268 -101 -99 -216 -146 -363 -146 -376 0 -620
402 -449 740 44 86 137 176 231 221 106 51 146 56 472 58 l262 1 0 -273z"/>
</g>
</svg>
